<?xml version="1.0" encoding="utf-8"?>
<!-- Generator: Adobe Illustrator 19.0.0, SVG Export Plug-In . SVG Version: 6.00 Build 0)  -->
<svg version="1.1"
	 id="Layer_1" xmlns:cc="http://creativecommons.org/ns#" xmlns:dc="http://purl.org/dc/elements/1.1/" xmlns:rdf="http://www.w3.org/1999/02/22-rdf-syntax-ns#"
	 xmlns="http://www.w3.org/2000/svg" xmlns:xlink="http://www.w3.org/1999/xlink" x="0px" y="0px" viewBox="-408.2 586.3 24.5 18.6"
	 style="enable-background:new -408.2 586.3 24.5 18.6;" xml:space="preserve">
<style type="text/css">
	.st0{fill:#DDDDDD;}
	.st1{fill:#FFFFFF;}
</style>
<g>
	<path class="st0" d="M-397.9,589.5c-2.7,0-4.9,2.2-4.9,4.9c0,0,0,0,0,0.1c-1.4,0.7-2.3,2-2.3,3.7c0,2.3,1.9,4.1,4.1,4.1l0,0h10h0.2
		c2.1,0,3.8-1.7,3.8-3.8c0-1.6-1-2.9-2.3-3.5c0.1-0.2,0.1-0.4,0.1-0.6c0-1.5-1.2-2.6-2.6-2.6c-0.6,0-1.1,0.2-1.6,0.5
		C-394.3,590.6-395.9,589.5-397.9,589.5L-397.9,589.5z"/>
	<path class="st1" d="M-397.9,588.8c-2.7,0-4.9,2.2-4.9,4.9c0,0,0,0,0,0.1c-1.4,0.7-2.3,2-2.3,3.7c0,2.3,1.9,4.1,4.1,4.1l0,0h10h0.2
		c2.1,0,3.8-1.7,3.8-3.8c0-1.6-1-2.9-2.3-3.5c0.1-0.2,0.1-0.4,0.1-0.6c0-1.5-1.2-2.6-2.6-2.6c-0.6,0-1.1,0.2-1.6,0.5
		C-394.3,589.9-395.9,588.8-397.9,588.8L-397.9,588.8z"/>
</g>
</svg>
