<?xml version="1.0" encoding="utf-8"?>
<!-- Generator: Adobe Illustrator 19.0.0, SVG Export Plug-In . SVG Version: 6.00 Build 0)  -->
<svg version="1.1" id="Layer_1" xmlns="http://www.w3.org/2000/svg" xmlns:xlink="http://www.w3.org/1999/xlink" x="0px" y="0px"
	 viewBox="-365 540.5 110 110" style="enable-background:new -365 540.5 110 110;" xml:space="preserve">
<style type="text/css">
	.st0{fill:#E2E4E5;}
	.st1{fill:#F8E1C2;}
	.st2{fill:#FCF1E2;}
	.st3{fill:#F79392;}
	.st4{fill:#3E3E3F;}
	.st5{fill:#F4D0A1;}
	.st6{fill:#FA5655;}
	.st7{fill:#FFFFFF;}
	.st8{fill:#DF2C2C;}
	.st9{fill:#9E9FA0;}
</style>
<g id="Multicolor">
	<g>
		<g>
			<polygon class="st0" points="-291,616.1 -294.2,614.6 -325.8,614.6 -329,616.1 -310,646.3 			"/>
		</g>
		<path class="st1" d="M-286.2,579.7c-1.6,0-1.6,1.8-1.6,1.8v-1.8c0-1.7,0-3.3-0.1-4.9c-6.4-6.2-22.1-6.2-22.1-6.2s-15.7,0-22.1,6.2
			c-0.1,1.5-0.1,3.2-0.1,4.9v12.7l6.3,15.8l8.1,6.3c0.9,1,2.2,1.6,3.6,1.6h4.2h4.2c1.4,0,2.6-0.6,3.6-1.6l8.1-6.3l5.1-12.7
			c4.5-0.3,6-7.1,6-12.3C-283.1,581.5-284.6,579.7-286.2,579.7z"/>
		<path class="st2" d="M-332.2,579.7v1.8c0,0,0-1.8-1.6-1.8s-3.2,1.8-3.2,3.5c0,5.2,1.5,12,6,12.3l5.1,12.7l8.1,6.3
			c0.9,1,2.2,1.6,3.6,1.6h4.2v-47.5c0,0-15.7,0-22.1,6.2C-332.2,576.4-332.2,578-332.2,579.7z"/>
		<g>
			<path class="st3" d="M-317.9,598.7h15.8c0,0,0,4.8-7.9,4.8S-317.9,598.7-317.9,598.7z"/>
		</g>
		<g>
			<path class="st4" d="M-300.5,583.4c1.9,0,3.6,0.4,4.7,1.1c0.1-0.9-0.3-1.8-1.2-2.5c-1.6-1.2-4.3-1.2-5.9,0
				c-0.7,0.6-1.1,1.3-1.2,2C-303,583.6-301.8,583.4-300.5,583.4z"/>
		</g>
		<g>
			<path class="st4" d="M-319.5,583.4c-1.9,0-3.6,0.4-4.7,1.1c-0.1-0.9,0.3-1.8,1.2-2.5c1.6-1.2,4.3-1.2,5.9,0
				c0.7,0.6,1.1,1.3,1.2,2C-317,583.6-318.2,583.4-319.5,583.4z"/>
		</g>
		<path class="st5" d="M-305.8,616.1h-4.2h-4.2c-1.4,0-2.6-0.6-3.6-1.6l-8.1-6.3v7.1c0,0,0,11.9,15.8,11.9s15.8-11.9,15.8-11.9v-7.1
			l-8.1,6.3C-303.1,615.6-304.4,616.1-305.8,616.1z"/>
		<g>
			<path class="st4" d="M-310,568.6c0,0-1.2,0-3.1,0.1c0,2,0,6.7,0,8.9c5.9,0,9.5-4.3,11.5-8.3C-306.2,568.6-310,568.6-310,568.6z"
				/>
			<path class="st4" d="M-324.4,570.7c-3,0.9-5.8,2.3-7.8,4.2c0,5.6,3.7,8.3,3.7,8.3C-329,578.6-329,575.5-324.4,570.7z"/>
			<path class="st4" d="M-322.9,570.3c0,1.5,0,4.4,0,7.4c4.5,0,8.2-6.4,9.4-8.9C-316,569-319.5,569.4-322.9,570.3z"/>
			<path class="st4" d="M-292,572.1c0,0.6,0,7.2,0,11.2c3.9,0,4.2-7.4,4.2-8.3C-289,573.8-290.4,572.9-292,572.1z"/>
			<path class="st4" d="M-299,569.8c0,2.7,0,5.6,0,7.8c5.3,0,6.9-5,7-5.6C-294.2,571.1-296.7,570.3-299,569.8z"/>
		</g>
		<path class="st1" d="M-317.8,614.6l-8.1-6.3v7.1c0,0,0,11.9,15.8,11.9v-11.1h-4.2C-315.6,616.1-316.9,615.6-317.8,614.6z"/>
		<g>
			<path class="st6" d="M-342.5,593.1V562c-1.1-0.4-2.2-0.8-3.2-1.2v32.2c-4.1,2.7-1.6,10.9-1.6,15.1c1.6,0,2.4,0,2.9,0
				c0.1,0,0.2,0,0.3,0c0.2,0,0.3,0,0.3,0c0.5,0,1.3,0,2.9,0C-340.9,603.9-338.4,595.8-342.5,593.1z"/>
			<path class="st4" d="M-267.2,557.5c0-1.6-39.6-12.7-42.8-12.7s-42.8,11.1-42.8,12.7c0,1,11.8,5.1,20.6,8c0,2.7,0,6,0,9.4
				c6.3-6.3,22.2-6.3,22.2-6.3s15.8,0,22.2,6.3c0-3.5,0-6.7,0-9.4C-279,562.6-267.2,558.5-267.2,557.5z"/>
		</g>
		<g>
			<polygon class="st7" points="-291,616.2 -291,616.2 -294.2,614.6 -310,622.5 -300.8,631.7 			"/>
		</g>
		<g>
			<polygon class="st8" points="-303.7,646.3 -308.1,630.1 -305.2,627.3 -310,622.5 -314.8,627.2 -311.9,630.1 -316.3,646.3 			"/>
		</g>
		<g>
			<polygon class="st6" points="-310,646.3 -310,622.5 -310,622.5 -314.8,627.2 -311.9,630.1 -316.3,646.3 			"/>
		</g>
		<g>
			<polygon class="st7" points="-329,616.2 -329,616.2 -325.8,614.6 -310,622.5 -319.2,631.7 			"/>
		</g>
		<g>
			<path class="st4" d="M-360.7,646.3l6.3-17.4c1-2.1,2.7-3.8,4.8-4.7l20.5-8l19,30.1H-360.7z"/>
		</g>
		<g>
			<path class="st4" d="M-259.3,646.3l-6.3-17.4c-1-2.1-2.7-3.8-4.8-4.7l-20.5-8l-19,30.1H-259.3z"/>
		</g>
		<g>
			<polygon class="st9" points="-310,646.3 -329,616.2 -343.3,620.9 -316.3,646.3 			"/>
		</g>
		<g>
			<polygon class="st9" points="-310,646.3 -291,616.2 -276.7,620.9 -303.7,646.3 			"/>
		</g>
	</g>
</g>
</svg>
